<svg width="140" height="140" viewBox="0 0 140 140" fill="none" xmlns="http://www.w3.org/2000/svg">
<g filter="url(#filter0_d_31_112)">
<circle cx="70" cy="66" r="60" fill="#6883BA"/>
</g>
<path d="M81.4445 57.9938V56.8334C81.4445 51.6084 73.5632 47.6667 63.1112 47.6667C52.6591 47.6667 44.7778 51.6084 44.7778 56.8334V65.1667C44.7778 69.5188 50.2466 72.9772 58.1112 74.0126V75.1667C58.1112 80.3917 65.9924 84.3334 76.4445 84.3334C86.8966 84.3334 94.7778 80.3917 94.7778 75.1667V66.8334C94.7778 62.5209 89.482 59.0584 81.4445 57.9938ZM91.4445 66.8334C91.4445 69.5876 85.0299 72.6667 76.4445 72.6667C75.6674 72.6667 74.8966 72.6397 74.1362 72.5897C78.6299 70.9522 81.4445 68.2917 81.4445 65.1667V61.3626C87.6674 62.2897 91.4445 64.8063 91.4445 66.8334ZM58.1112 70.6355V65.6792C59.769 65.8953 61.4393 66.0024 63.1112 66.0001C64.783 66.0024 66.4533 65.8953 68.1112 65.6792V70.6355C66.4558 70.8801 64.7845 71.0019 63.1112 71.0001C61.4378 71.0019 59.7666 70.8801 58.1112 70.6355ZM78.1112 62.2355V65.1667C78.1112 66.9147 75.5257 68.7917 71.4445 69.9313V65.0626C74.1341 64.4105 76.4112 63.4397 78.1112 62.2355ZM63.1112 51.0001C71.6966 51.0001 78.1112 54.0792 78.1112 56.8334C78.1112 59.5876 71.6966 62.6667 63.1112 62.6667C54.5257 62.6667 48.1112 59.5876 48.1112 56.8334C48.1112 54.0792 54.5257 51.0001 63.1112 51.0001ZM48.1112 65.1667V62.2355C49.8112 63.4397 52.0882 64.4105 54.7778 65.0626V69.9313C50.6966 68.7917 48.1112 66.9147 48.1112 65.1667ZM61.4445 75.1667V74.298C61.9924 74.3188 62.5466 74.3334 63.1112 74.3334C63.9195 74.3334 64.7091 74.3063 65.4841 74.2605C66.345 74.5687 67.222 74.8302 68.1112 75.0438V79.9313C64.0299 78.7917 61.4445 76.9147 61.4445 75.1667ZM71.4445 80.6355V75.6667C73.1018 75.8895 74.7723 76.0009 76.4445 76.0001C78.1164 76.0024 79.7866 75.8953 81.4445 75.6792V80.6355C78.1289 81.1216 74.7601 81.1216 71.4445 80.6355ZM84.7778 79.9313V75.0626C87.4674 74.4105 89.7445 73.4397 91.4445 72.2355V75.1667C91.4445 76.9147 88.8591 78.7917 84.7778 79.9313Z" fill="white"/>
<defs>
<filter id="filter0_d_31_112" x="0" y="0" width="140" height="140" filterUnits="userSpaceOnUse" color-interpolation-filters="sRGB">
<feFlood flood-opacity="0" result="BackgroundImageFix"/>
<feColorMatrix in="SourceAlpha" type="matrix" values="0 0 0 0 0 0 0 0 0 0 0 0 0 0 0 0 0 0 127 0" result="hardAlpha"/>
<feOffset dy="4"/>
<feGaussianBlur stdDeviation="5"/>
<feComposite in2="hardAlpha" operator="out"/>
<feColorMatrix type="matrix" values="0 0 0 0 0 0 0 0 0 0 0 0 0 0 0 0 0 0 0.15 0"/>
<feBlend mode="normal" in2="BackgroundImageFix" result="effect1_dropShadow_31_112"/>
<feBlend mode="normal" in="SourceGraphic" in2="effect1_dropShadow_31_112" result="shape"/>
</filter>
</defs>
</svg>
