<svg width="140" height="140" viewBox="0 0 140 140" fill="none" xmlns="http://www.w3.org/2000/svg">
<g filter="url(#filter0_d_54_140)">
<circle cx="70" cy="66" r="60" fill="#D16666"/>
</g>
<path d="M93.6813 70.1375C93.5073 70.268 93.3093 70.363 93.0986 70.417C92.8879 70.471 92.6686 70.4829 92.4533 70.4522C92.238 70.4214 92.0308 70.3485 91.8437 70.2377C91.6565 70.1269 91.493 69.9803 91.3625 69.8063C90.3642 68.4644 89.0649 67.3757 87.569 66.6278C86.0731 65.8798 84.4225 65.4936 82.75 65.5C82.4243 65.5 82.1059 65.404 81.8345 65.2239C81.5631 65.0438 81.3508 64.7877 81.2242 64.4877C81.1382 64.2839 81.0939 64.065 81.0939 63.8438C81.0939 63.6226 81.1382 63.4037 81.2242 63.1999C81.3508 62.8999 81.5631 62.6438 81.8345 62.4637C82.1059 62.2836 82.4243 62.1876 82.75 62.1875C83.6793 62.1875 84.59 61.9268 85.3786 61.4351C86.1671 60.9434 86.802 60.2404 87.2111 59.406C87.6201 58.5715 87.787 57.6391 87.6927 56.7146C87.5984 55.7901 87.2467 54.9106 86.6776 54.1759C86.1085 53.4412 85.3447 52.8809 84.4731 52.5586C83.6015 52.2362 82.657 52.1647 81.7468 52.3523C80.8366 52.5398 79.9973 52.9789 79.3241 53.6195C78.6509 54.2602 78.1709 55.0768 77.9386 55.9766C77.8842 56.1873 77.7889 56.3852 77.658 56.5591C77.5272 56.733 77.3633 56.8793 77.1759 56.9899C76.9884 57.1004 76.7811 57.173 76.5656 57.2034C76.3501 57.2338 76.1308 57.2214 75.9201 57.167C75.7094 57.1127 75.5114 57.0173 75.3376 56.8864C75.1637 56.7556 75.0173 56.5917 74.9068 56.4043C74.7962 56.2169 74.7237 56.0095 74.6933 55.794C74.6629 55.5785 74.6753 55.3592 74.7296 55.1485C75.0521 53.9007 75.6613 52.7455 76.5088 51.7746C77.3563 50.8037 78.4188 50.0441 79.6115 49.5561C80.8043 49.068 82.0945 48.8651 83.3795 48.9635C84.6645 49.0618 85.9088 49.4587 87.0134 50.1226C88.118 50.7865 89.0524 51.699 89.7422 52.7875C90.4321 53.8761 90.8584 55.1106 90.9872 56.3929C91.116 57.6752 90.9438 58.9698 90.4842 60.1739C90.0246 61.3779 89.2904 62.458 88.3399 63.3283C90.592 64.3034 92.5498 65.8508 94.0187 67.8167C94.1492 67.9912 94.244 68.1896 94.2977 68.4008C94.3514 68.6119 94.3629 68.8316 94.3315 69.0471C94.3002 69.2627 94.2266 69.47 94.115 69.6571C94.0034 69.8442 93.856 70.0075 93.6813 70.1375ZM82.5264 82.8907C82.6463 83.0792 82.7267 83.29 82.763 83.5104C82.7992 83.7308 82.7905 83.9563 82.7374 84.1732C82.6842 84.3902 82.5878 84.5942 82.4537 84.7729C82.3197 84.9516 82.1509 85.1013 81.9576 85.2131C81.7642 85.3249 81.5501 85.3964 81.3284 85.4234C81.1067 85.4503 80.8818 85.4321 80.6672 85.3699C80.4527 85.3076 80.253 85.2026 80.0801 85.0612C79.9072 84.9198 79.7647 84.7449 79.6611 84.5469C78.6178 82.7803 77.1318 81.3162 75.3499 80.2991C73.5681 79.282 71.5518 78.747 69.5 78.747C67.4483 78.747 65.432 79.282 63.6501 80.2991C61.8682 81.3162 60.3823 82.7803 59.3389 84.5469C59.2354 84.7449 59.0929 84.9198 58.92 85.0612C58.7471 85.2026 58.5473 85.3076 58.3328 85.3699C58.1183 85.4321 57.8934 85.4503 57.6716 85.4234C57.4499 85.3964 57.2359 85.3249 57.0425 85.2131C56.8491 85.1013 56.6803 84.9516 56.5463 84.7729C56.4123 84.5942 56.3158 84.3902 56.2627 84.1732C56.2095 83.9563 56.2008 83.7308 56.2371 83.5104C56.2733 83.29 56.3538 83.0792 56.4736 82.8907C58.0793 80.1317 60.5277 77.9606 63.4588 76.6963C61.8095 75.4335 60.5973 73.6856 59.9927 71.6982C59.3881 69.7109 59.4215 67.584 60.0882 65.6166C60.7549 63.6492 62.0213 61.9402 63.7095 60.7298C65.3977 59.5194 67.4227 58.8684 69.5 58.8684C71.5773 58.8684 73.6024 59.5194 75.2905 60.7298C76.9787 61.9402 78.2452 63.6492 78.9118 65.6166C79.5785 67.584 79.6119 69.7109 79.0073 71.6982C78.4027 73.6856 77.1905 75.4335 75.5412 76.6963C78.4724 77.9606 80.9207 80.1317 82.5264 82.8907ZM69.5 75.4375C70.8103 75.4375 72.0912 75.049 73.1807 74.321C74.2701 73.5931 75.1193 72.5584 75.6207 71.3478C76.1222 70.1373 76.2533 68.8052 75.9977 67.5201C75.7421 66.2349 75.1111 65.0545 74.1846 64.128C73.2581 63.2014 72.0776 62.5705 70.7925 62.3148C69.5074 62.0592 68.1753 62.1904 66.9647 62.6918C65.7542 63.1933 64.7195 64.0424 63.9915 65.1319C63.2636 66.2214 62.875 67.5022 62.875 68.8125C62.875 70.5696 63.573 72.2547 64.8154 73.4971C66.0579 74.7396 67.743 75.4375 69.5 75.4375ZM57.9063 63.8438C57.9063 63.4045 57.7318 62.9833 57.4212 62.6727C57.1106 62.362 56.6893 62.1875 56.25 62.1875C55.3207 62.1875 54.4101 61.9268 53.6215 61.4351C52.8329 60.9434 52.198 60.2404 51.789 59.406C51.3799 58.5715 51.213 57.6391 51.3074 56.7146C51.4017 55.7901 51.7533 54.9106 52.3224 54.1759C52.8916 53.4412 53.6553 52.8809 54.5269 52.5586C55.3985 52.2362 56.343 52.1647 57.2532 52.3523C58.1634 52.5398 59.0028 52.9789 59.6759 53.6195C60.3491 54.2602 60.8291 55.0768 61.0614 55.9766C61.1712 56.4021 61.4456 56.7666 61.8242 56.9899C62.2027 57.2131 62.6544 57.2769 63.08 57.167C63.5055 57.0572 63.87 56.7829 64.0933 56.4043C64.3165 56.0258 64.3802 55.574 64.2704 55.1485C63.9479 53.9007 63.3387 52.7455 62.4912 51.7746C61.6437 50.8037 60.5813 50.0441 59.3885 49.5561C58.1957 49.068 56.9055 48.8651 55.6206 48.9635C54.3356 49.0618 53.0913 49.4587 51.9867 50.1226C50.8821 50.7865 49.9477 51.699 49.2578 52.7875C48.5679 53.8761 48.1416 55.1106 48.0128 56.3929C47.884 57.6752 48.0562 58.9698 48.5158 60.1739C48.9754 61.3779 49.7097 62.458 50.6602 63.3283C48.4103 64.3043 46.4548 65.8516 44.9875 67.8167C44.7237 68.1681 44.6103 68.61 44.6722 69.045C44.7341 69.4801 44.9663 69.8727 45.3177 70.1365C45.6691 70.4003 46.111 70.5138 46.546 70.4518C46.9811 70.3899 47.3737 70.1577 47.6375 69.8063C48.6358 68.4644 49.9352 67.3757 51.4311 66.6278C52.927 65.8798 54.5776 65.4936 56.25 65.5C56.6893 65.5 57.1106 65.3255 57.4212 65.0149C57.7318 64.7043 57.9063 64.2831 57.9063 63.8438Z" fill="white"/>
<defs>
<filter id="filter0_d_54_140" x="0" y="0" width="140" height="140" filterUnits="userSpaceOnUse" color-interpolation-filters="sRGB">
<feFlood flood-opacity="0" result="BackgroundImageFix"/>
<feColorMatrix in="SourceAlpha" type="matrix" values="0 0 0 0 0 0 0 0 0 0 0 0 0 0 0 0 0 0 127 0" result="hardAlpha"/>
<feOffset dy="4"/>
<feGaussianBlur stdDeviation="5"/>
<feComposite in2="hardAlpha" operator="out"/>
<feColorMatrix type="matrix" values="0 0 0 0 0 0 0 0 0 0 0 0 0 0 0 0 0 0 0.15 0"/>
<feBlend mode="normal" in2="BackgroundImageFix" result="effect1_dropShadow_54_140"/>
<feBlend mode="normal" in="SourceGraphic" in2="effect1_dropShadow_54_140" result="shape"/>
</filter>
</defs>
</svg>
