<svg width="140" height="140" viewBox="0 0 140 140" fill="none" xmlns="http://www.w3.org/2000/svg">
<g filter="url(#filter0_d_31_115)">
<circle cx="70" cy="66" r="60" fill="#F7B05B"/>
</g>
<path d="M90 66C90 66.4421 89.8244 66.866 89.5118 67.1785C89.1992 67.4911 88.7753 67.6667 88.3333 67.6667H70C69.5579 67.6667 69.134 67.4911 68.8214 67.1785C68.5089 66.866 68.3333 66.4421 68.3333 66C68.3333 65.558 68.5089 65.1341 68.8214 64.8215C69.134 64.509 69.5579 64.3334 70 64.3334H88.3333C88.7753 64.3334 89.1992 64.509 89.5118 64.8215C89.8244 65.1341 90 65.558 90 66ZM70 54.3334H88.3333C88.7753 54.3334 89.1992 54.1578 89.5118 53.8452C89.8244 53.5326 90 53.1087 90 52.6667C90 52.2247 89.8244 51.8007 89.5118 51.4882C89.1992 51.1756 88.7753 51 88.3333 51H70C69.5579 51 69.134 51.1756 68.8214 51.4882C68.5089 51.8007 68.3333 52.2247 68.3333 52.6667C68.3333 53.1087 68.5089 53.5326 68.8214 53.8452C69.134 54.1578 69.5579 54.3334 70 54.3334ZM88.3333 77.6667H70C69.5579 77.6667 69.134 77.8423 68.8214 78.1549C68.5089 78.4674 68.3333 78.8913 68.3333 79.3334C68.3333 79.7754 68.5089 80.1993 68.8214 80.5119C69.134 80.8244 69.5579 81 70 81H88.3333C88.7753 81 89.1992 80.8244 89.5118 80.5119C89.8244 80.1993 90 79.7754 90 79.3334C90 78.8913 89.8244 78.4674 89.5118 78.1549C89.1992 77.8423 88.7753 77.6667 88.3333 77.6667ZM60.4874 48.1542L54.9999 53.6438L52.8458 51.4875C52.533 51.1748 52.1089 50.9991 51.6666 50.9991C51.2243 50.9991 50.8002 51.1748 50.4875 51.4875C50.1747 51.8003 49.999 52.2244 49.999 52.6667C49.999 53.109 50.1747 53.5331 50.4875 53.8459L53.8208 57.1792C53.9756 57.3342 54.1594 57.4571 54.3617 57.541C54.564 57.6248 54.7809 57.668 54.9999 57.668C55.219 57.668 55.4359 57.6248 55.6382 57.541C55.8405 57.4571 56.0243 57.3342 56.1791 57.1792L62.8458 50.5125C63.1585 50.1998 63.3342 49.7756 63.3342 49.3334C63.3342 48.8911 63.1585 48.4669 62.8458 48.1542C62.533 47.8415 62.1089 47.6658 61.6666 47.6658C61.2243 47.6658 60.8002 47.8415 60.4874 48.1542ZM60.4874 61.4875L54.9999 66.9771L52.8458 64.8209C52.533 64.5081 52.1089 64.3324 51.6666 64.3324C51.2243 64.3324 50.8002 64.5081 50.4875 64.8209C50.1747 65.1336 49.999 65.5578 49.999 66C49.999 66.219 50.0422 66.4359 50.126 66.6382C50.2098 66.8405 50.3326 67.0243 50.4875 67.1792L53.8208 70.5125C53.9756 70.6675 54.1594 70.7904 54.3617 70.8743C54.564 70.9582 54.7809 71.0013 54.9999 71.0013C55.219 71.0013 55.4359 70.9582 55.6382 70.8743C55.8405 70.7904 56.0243 70.6675 56.1791 70.5125L62.8458 63.8459C63.1585 63.5331 63.3342 63.109 63.3342 62.6667C63.3342 62.2244 63.1585 61.8003 62.8458 61.4875C62.533 61.1748 62.1089 60.9991 61.6666 60.9991C61.2243 60.9991 60.8002 61.1748 60.4874 61.4875ZM60.4874 74.8209L54.9999 80.3104L52.8458 78.1542C52.6909 77.9993 52.5071 77.8765 52.3048 77.7927C52.1025 77.7089 51.8856 77.6658 51.6666 77.6658C51.4476 77.6658 51.2308 77.7089 51.0285 77.7927C50.8261 77.8765 50.6423 77.9993 50.4875 78.1542C50.3326 78.309 50.2098 78.4929 50.126 78.6952C50.0422 78.8975 49.999 79.1144 49.999 79.3334C49.999 79.5524 50.0422 79.7692 50.126 79.9715C50.2098 80.1738 50.3326 80.3577 50.4875 80.5125L53.8208 83.8459C53.9756 84.0008 54.1594 84.1238 54.3617 84.2076C54.564 84.2915 54.7809 84.3347 54.9999 84.3347C55.219 84.3347 55.4359 84.2915 55.6382 84.2076C55.8405 84.1238 56.0243 84.0008 56.1791 83.8459L62.8458 77.1792C63.1585 76.8665 63.3342 76.4423 63.3342 76C63.3342 75.5578 63.1585 75.1336 62.8458 74.8209C62.533 74.5081 62.1089 74.3324 61.6666 74.3324C61.2243 74.3324 60.8002 74.5081 60.4874 74.8209Z" fill="white"/>
<defs>
<filter id="filter0_d_31_115" x="0" y="0" width="140" height="140" filterUnits="userSpaceOnUse" color-interpolation-filters="sRGB">
<feFlood flood-opacity="0" result="BackgroundImageFix"/>
<feColorMatrix in="SourceAlpha" type="matrix" values="0 0 0 0 0 0 0 0 0 0 0 0 0 0 0 0 0 0 127 0" result="hardAlpha"/>
<feOffset dy="4"/>
<feGaussianBlur stdDeviation="5"/>
<feComposite in2="hardAlpha" operator="out"/>
<feColorMatrix type="matrix" values="0 0 0 0 0 0 0 0 0 0 0 0 0 0 0 0 0 0 0.15 0"/>
<feBlend mode="normal" in2="BackgroundImageFix" result="effect1_dropShadow_31_115"/>
<feBlend mode="normal" in="SourceGraphic" in2="effect1_dropShadow_31_115" result="shape"/>
</filter>
</defs>
</svg>
