<svg width="100" height="100" viewBox="0 0 100 100" fill="none" xmlns="http://www.w3.org/2000/svg">
<rect width="100" height="100" rx="12" fill="#47B183"/>
<path d="M64.5842 13.4656C68.0178 25.6614 65.4353 30.9636 55.0198 38.4664C51.7258 25.8044 53.7133 20.2865 64.5842 13.4656Z" fill="white"/>
<path fill-rule="evenodd" clip-rule="evenodd" d="M64.7287 13.077C64.8427 13.1238 64.9297 13.2233 64.9645 13.3467C66.691 19.4792 66.9321 23.9676 65.3608 27.8875C63.7952 31.7933 60.4613 35.0519 55.2436 38.8103C55.1378 38.8866 55.0034 38.9043 54.8831 38.858C54.7627 38.8117 54.6711 38.7069 54.6373 38.5769C52.985 32.2255 52.628 27.5681 54.1218 23.6218C55.6159 19.6745 58.9268 16.5299 64.3813 13.1075C64.4865 13.0415 64.6147 13.0303 64.7287 13.077ZM64.3472 14.1021C59.2012 17.3883 56.2143 20.3479 54.8586 23.9294C53.5066 27.5012 53.7443 31.7777 55.257 37.788C60.1817 34.1896 63.203 31.1244 64.6301 27.5643C66.0534 24.0134 65.9203 19.8919 64.3472 14.1021Z" fill="white"/>
<path d="M35.1467 13.4656C31.7131 25.6614 34.2956 30.9636 44.7111 38.4664C48.0051 25.8044 46.0176 20.2865 35.1467 13.4656Z" fill="white"/>
<path fill-rule="evenodd" clip-rule="evenodd" d="M35.0022 13.077C34.8882 13.1238 34.8012 13.2233 34.7664 13.3467C33.0399 19.4792 32.7988 23.9676 34.3701 27.8875C35.9357 31.7933 39.2696 35.0519 44.4873 38.8103C44.5931 38.8866 44.7275 38.9043 44.8478 38.858C44.9682 38.8117 45.0598 38.7069 45.0936 38.5769C46.7459 32.2255 47.1029 27.5681 45.6091 23.6218C44.115 19.6745 40.8041 16.5299 35.3495 13.1075C35.2444 13.0415 35.1162 13.0303 35.0022 13.077ZM35.3837 14.1021C40.5297 17.3883 43.5166 20.3479 44.8723 23.9294C46.2243 27.5012 45.9866 31.7777 44.4739 37.788C39.5492 34.1896 36.5279 31.1244 35.1008 27.5643C33.6775 24.0134 33.8106 19.8919 35.3837 14.1021Z" fill="white"/>
<path d="M64.5842 86.2653C68.0178 74.0695 65.4353 68.7672 55.0198 61.2645C51.7258 73.9264 53.7133 79.4444 64.5842 86.2653Z" fill="white"/>
<path fill-rule="evenodd" clip-rule="evenodd" d="M64.7287 86.6539C64.8427 86.6071 64.9297 86.5076 64.9645 86.3842C66.691 80.2517 66.9321 75.7633 65.3608 71.8434C63.7952 67.9376 60.4613 64.679 55.2436 60.9206C55.1378 60.8443 55.0034 60.8266 54.8831 60.8729C54.7627 60.9192 54.6711 61.024 54.6373 61.154C52.985 67.5054 52.628 72.1628 54.1218 76.1091C55.6159 80.0564 58.9268 83.201 64.3813 86.6234C64.4865 86.6894 64.6147 86.7006 64.7287 86.6539ZM64.3472 85.6288C59.2012 82.3426 56.2143 79.383 54.8586 75.8015C53.5066 72.2297 53.7443 67.9532 55.257 61.9429C60.1817 65.5413 63.203 68.6064 64.6301 72.1666C66.0534 75.7175 65.9203 79.839 64.3472 85.6288Z" fill="white"/>
<path d="M35.1467 86.2653C31.7131 74.0695 34.2956 68.7672 44.7111 61.2645C48.0051 73.9264 46.0176 79.4444 35.1467 86.2653Z" fill="white"/>
<path fill-rule="evenodd" clip-rule="evenodd" d="M35.0022 86.6539C34.8882 86.6071 34.8012 86.5076 34.7664 86.3842C33.0399 80.2517 32.7988 75.7633 34.3701 71.8434C35.9357 67.9376 39.2696 64.679 44.4873 60.9206C44.5931 60.8443 44.7275 60.8266 44.8478 60.8729C44.9682 60.9192 45.0598 61.024 45.0936 61.154C46.7459 67.5054 47.1029 72.1628 45.6091 76.1091C44.115 80.0564 40.8041 83.201 35.3495 86.6234C35.2444 86.6894 35.1162 86.7006 35.0022 86.6539ZM35.3837 85.6288C40.5297 82.3426 43.5166 79.383 44.8723 75.8015C46.2243 72.2297 45.9866 67.9532 44.4739 61.9429C39.5492 65.5413 36.5279 68.6064 35.1008 72.1666C33.6775 75.7175 33.8106 79.839 35.3837 85.6288Z" fill="white"/>
<path d="M86.2653 64.5842C74.0694 68.0178 68.7672 65.4353 61.2645 55.0198C73.9264 51.7258 79.4444 53.7133 86.2653 64.5842Z" fill="white"/>
<path fill-rule="evenodd" clip-rule="evenodd" d="M86.6538 64.7287C86.6071 64.8427 86.5075 64.9297 86.3841 64.9644C80.2517 66.691 75.7633 66.9321 71.8434 65.3608C67.9375 63.7952 64.679 60.4612 60.9205 55.2436C60.8443 55.1377 60.8265 55.0034 60.8728 54.883C60.9192 54.7627 61.0239 54.6711 61.154 54.6373C67.5053 52.985 72.1627 52.628 76.1091 54.1217C80.0564 55.6158 83.2009 58.9268 86.6233 64.3813C86.6893 64.4865 86.7006 64.6147 86.6538 64.7287ZM85.6288 64.3471C82.3425 59.2012 79.383 56.2142 75.8014 54.8586C72.2296 53.5066 67.9532 53.7442 61.9428 55.2569C65.5412 60.1817 68.6064 63.203 72.1665 64.63C75.7174 66.0534 79.8389 65.9202 85.6288 64.3471Z" fill="white"/>
<path d="M86.2653 35.1467C74.0694 31.7131 68.7672 34.2956 61.2645 44.7111C73.9264 48.0051 79.4444 46.0176 86.2653 35.1467Z" fill="white"/>
<path fill-rule="evenodd" clip-rule="evenodd" d="M86.6538 35.0022C86.6071 34.8882 86.5075 34.8012 86.3841 34.7665C80.2517 33.0399 75.7633 32.7988 71.8434 34.3701C67.9375 35.9357 64.679 39.2696 60.9205 44.4873C60.8443 44.5931 60.8265 44.7275 60.8728 44.8478C60.9192 44.9682 61.0239 45.0598 61.154 45.0936C67.5053 46.7459 72.1627 47.1029 76.1091 45.6091C80.0564 44.115 83.2009 40.8041 86.6233 35.3496C86.6893 35.2444 86.7006 35.1162 86.6538 35.0022ZM85.6288 35.3837C82.3425 40.5297 79.383 43.5166 75.8014 44.8723C72.2296 46.2243 67.9532 45.9867 61.9428 44.4739C65.5412 39.5492 68.6064 36.5279 72.1665 35.1009C75.7174 33.6775 79.8389 33.8106 85.6288 35.3837Z" fill="white"/>
<path d="M13.4656 64.5842C25.6614 68.0178 30.9636 65.4353 38.4663 55.0198C25.8044 51.7258 20.2864 53.7133 13.4656 64.5842Z" fill="white"/>
<path fill-rule="evenodd" clip-rule="evenodd" d="M13.077 64.7287C13.1238 64.8427 13.2233 64.9297 13.3467 64.9644C19.4792 66.691 23.9676 66.9321 27.8875 65.3608C31.7933 63.7952 35.0519 60.4612 38.8103 55.2436C38.8866 55.1377 38.9043 55.0034 38.858 54.883C38.8117 54.7627 38.7069 54.6711 38.5769 54.6373C32.2255 52.985 27.5681 52.628 23.6218 54.1217C19.6745 55.6159 16.5299 58.9268 13.1075 64.3813C13.0415 64.4865 13.0303 64.6147 13.077 64.7287ZM14.1021 64.3471C17.3883 59.2012 20.3479 56.2142 23.9294 54.8586C27.5012 53.5066 31.7777 53.7442 37.788 55.2569C34.1896 60.1817 31.1244 63.203 27.5643 64.63C24.0134 66.0534 19.8919 65.9202 14.1021 64.3471Z" fill="white"/>
<path d="M13.4656 35.1467C25.6614 31.7131 30.9636 34.2956 38.4663 44.7111C25.8044 48.0051 20.2864 46.0176 13.4656 35.1467Z" fill="white"/>
<path fill-rule="evenodd" clip-rule="evenodd" d="M13.077 35.0022C13.1238 34.8882 13.2233 34.8012 13.3467 34.7665C19.4792 33.0399 23.9676 32.7988 27.8875 34.3701C31.7933 35.9357 35.0519 39.2696 38.8103 44.4873C38.8866 44.5931 38.9043 44.7275 38.858 44.8478C38.8117 44.9682 38.7069 45.0598 38.5769 45.0936C32.2255 46.7459 27.5681 47.1029 23.6218 45.6091C19.6745 44.115 16.5299 40.8041 13.1075 35.3496C13.0415 35.2444 13.0303 35.1162 13.077 35.0022ZM14.1021 35.3837C17.3883 40.5297 20.3479 43.5167 23.9294 44.8723C27.5012 46.2243 31.7777 45.9867 37.788 44.4739C34.1896 39.5492 31.1244 36.5279 27.5643 35.1009C24.0134 33.6775 19.8919 33.8106 14.1021 35.3837Z" fill="white"/>
</svg>
