<svg width="140" height="140" viewBox="0 0 140 140" fill="none" xmlns="http://www.w3.org/2000/svg">
<g id="Group 5">
<g id="Ellipse 1" filter="url(#filter0_d_31_133)">
<circle cx="70" cy="66" r="60" fill="#408E6B"/>
</g>
<g id="Group 1">
<path id="Vector 4" d="M79.945 41.6437C82.2341 49.7743 80.5124 53.3091 73.5687 58.3109C71.3727 49.8696 72.6977 46.191 79.945 41.6437Z" fill="#FF4040"/>
<path id="Vector 4 (Stroke)" fill-rule="evenodd" clip-rule="evenodd" d="M80.0413 41.3846C80.1173 41.4158 80.1753 41.4822 80.1985 41.5644C81.3495 45.6527 81.5103 48.645 80.4627 51.2583C79.419 53.8622 77.1964 56.0345 73.7179 58.5402C73.6474 58.591 73.5578 58.6029 73.4776 58.572C73.3973 58.5411 73.3363 58.4712 73.3137 58.3845C72.2122 54.1503 71.9742 51.0454 72.97 48.4145C73.9661 45.7829 76.1734 43.6866 79.8097 41.405C79.8799 41.361 79.9653 41.3535 80.0413 41.3846ZM79.787 42.068C76.3563 44.2588 74.365 46.2319 73.4612 48.6196C72.5599 51.0008 72.7184 53.8517 73.7268 57.8586C77.01 55.4597 79.0242 53.4163 79.9756 51.0428C80.9245 48.6756 80.8357 45.9279 79.787 42.068Z" fill="#FF4040"/>
<path id="Vector 5" d="M60.32 41.6437C58.0309 49.7743 59.7526 53.3091 66.6963 58.3109C68.8923 49.8696 67.5673 46.191 60.32 41.6437Z" fill="white"/>
<path id="Vector 5 (Stroke)" fill-rule="evenodd" clip-rule="evenodd" d="M60.2237 41.3846C60.1477 41.4158 60.0897 41.4822 60.0665 41.5644C58.9155 45.6527 58.7548 48.645 59.8023 51.2583C60.846 53.8622 63.0687 56.0345 66.5471 58.5402C66.6177 58.591 66.7072 58.6029 66.7875 58.572C66.8677 58.5411 66.9287 58.4712 66.9513 58.3845C68.0528 54.1503 68.2908 51.0454 67.295 48.4145C66.2989 45.7829 64.0916 43.6866 60.4553 41.405C60.3851 41.361 60.2997 41.3535 60.2237 41.3846ZM60.478 42.068C63.9087 44.2588 65.9 46.2319 66.8038 48.6196C67.7051 51.0008 67.5467 53.8517 66.5382 57.8586C63.255 55.4597 61.2408 53.4163 60.2895 51.0428C59.3405 48.6756 59.4293 45.9279 60.478 42.068Z" fill="white"/>
<g id="Vector 6 (Stroke)">
<path fill-rule="evenodd" clip-rule="evenodd" d="M80.0413 90.4359C80.1173 90.4047 80.1753 90.3384 80.1985 90.2561C81.3495 86.1678 81.5103 83.1756 80.4627 80.5623C79.419 77.9584 77.1964 75.786 73.7179 73.2804C73.6474 73.2295 73.5578 73.2177 73.4776 73.2486C73.3973 73.2795 73.3363 73.3493 73.3137 73.436C72.2122 77.6703 71.9742 80.7752 72.97 83.4061C73.9661 86.0376 76.1734 88.134 79.8097 90.4156C79.8799 90.4596 79.9653 90.4671 80.0413 90.4359ZM79.787 89.7525C76.3563 87.5617 74.365 85.5887 73.4612 83.201C72.5599 80.8198 72.7184 77.9688 73.7268 73.9619C77.01 76.3609 79.0242 78.4043 79.9756 80.7777C80.9245 83.145 80.8357 85.8927 79.787 89.7525Z" fill="#FF4040"/>
<path d="M73.4612 83.201C74.365 85.5887 76.3563 87.5617 79.787 89.7525C80.8357 85.8927 80.9245 83.145 79.9756 80.7777C79.0242 78.4043 77.01 76.3609 73.7268 73.9619C72.7184 77.9688 72.5599 80.8198 73.4612 83.201Z" fill="#FF4040"/>
</g>
<path id="Vector 7" d="M60.32 90.1769C58.0309 82.0463 59.7526 78.5115 66.6963 73.5097C68.8923 81.9509 67.5673 85.6296 60.32 90.1769Z" fill="white"/>
<path id="Vector 7 (Stroke)" fill-rule="evenodd" clip-rule="evenodd" d="M60.2237 90.4359C60.1477 90.4047 60.0897 90.3384 60.0665 90.2561C58.9155 86.1678 58.7548 83.1756 59.8023 80.5623C60.846 77.9584 63.0687 75.786 66.5471 73.2804C66.6177 73.2295 66.7072 73.2177 66.7875 73.2486C66.8677 73.2795 66.9287 73.3493 66.9513 73.436C68.0528 77.6703 68.2908 80.7752 67.295 83.4061C66.2989 86.0376 64.0916 88.134 60.4553 90.4156C60.3851 90.4596 60.2997 90.4671 60.2237 90.4359ZM60.478 89.7525C63.9087 87.5617 65.9 85.5887 66.8038 83.201C67.7051 80.8198 67.5467 77.9688 66.5382 73.9619C63.255 76.3609 61.2408 78.4043 60.2895 80.7777C59.3405 83.145 59.4293 85.8927 60.478 89.7525Z" fill="white"/>
<path id="Vector 8" d="M94.3991 75.7228C86.2685 78.0118 82.7337 76.2902 77.7319 69.3465C86.1732 67.1505 89.8518 68.4755 94.3991 75.7228Z" fill="white"/>
<path id="Vector 8 (Stroke)" fill-rule="evenodd" clip-rule="evenodd" d="M94.6581 75.8192C94.6269 75.8951 94.5606 75.9531 94.4783 75.9763C90.39 77.1273 87.3977 77.2881 84.7845 76.2406C82.1806 75.1968 80.0082 72.9742 77.5026 69.4958C77.4517 69.4252 77.4399 69.3356 77.4708 69.2554C77.5017 69.1751 77.5715 69.1141 77.6582 69.0915C81.8924 67.99 84.9974 67.752 87.6283 68.7478C90.2598 69.7439 92.3562 71.9512 94.6378 75.5876C94.6818 75.6577 94.6893 75.7432 94.6581 75.8192ZM93.9747 75.5648C91.7839 72.1341 89.8109 70.1428 87.4232 69.2391C85.042 68.3377 82.191 68.4962 78.1841 69.5046C80.5831 72.7878 82.6265 74.802 84.9999 75.7534C87.3672 76.7023 90.1148 76.6135 93.9747 75.5648Z" fill="white"/>
<path id="Vector 9" d="M94.3991 56.0978C86.2685 53.8087 82.7337 55.5304 77.7319 62.4741C86.1732 64.6701 89.8518 63.3451 94.3991 56.0978Z" fill="white"/>
<path id="Vector 9 (Stroke)" fill-rule="evenodd" clip-rule="evenodd" d="M94.6581 56.0014C94.6269 55.9254 94.5606 55.8674 94.4783 55.8442C90.39 54.6932 87.3977 54.5325 84.7845 55.58C82.1806 56.6238 80.0082 58.8464 77.5026 62.3248C77.4517 62.3954 77.4399 62.4849 77.4708 62.5652C77.5017 62.6454 77.5715 62.7065 77.6582 62.729C81.8924 63.8306 84.9973 64.0686 87.6283 63.0727C90.2598 62.0766 92.3562 59.8694 94.6378 56.233C94.6818 56.1629 94.6893 56.0774 94.6581 56.0014ZM93.9747 56.2558C91.7839 59.6864 89.8109 61.6777 87.4232 62.5815C85.042 63.4828 82.191 63.3244 78.1841 62.3159C80.5831 59.0327 82.6265 57.0186 84.9999 56.0672C87.3672 55.1183 90.1148 55.207 93.9747 56.2558Z" fill="white"/>
<path id="Vector 10" d="M45.8659 75.7228C53.9965 78.0118 57.5313 76.2902 62.5331 69.3465C54.0918 67.1505 50.4132 68.4755 45.8659 75.7228Z" fill="white"/>
<path id="Vector 10 (Stroke)" fill-rule="evenodd" clip-rule="evenodd" d="M45.6069 75.8192C45.6381 75.8951 45.7044 75.9531 45.7867 75.9763C49.875 77.1273 52.8673 77.2881 55.4805 76.2406C58.0844 75.1968 60.2568 72.9742 62.7624 69.4958C62.8133 69.4252 62.8251 69.3356 62.7942 69.2554C62.7633 69.1751 62.6935 69.1141 62.6068 69.0915C58.3726 67.99 55.2676 67.752 52.6367 68.7478C50.0052 69.7439 47.9088 71.9512 45.6272 75.5876C45.5832 75.6577 45.5757 75.7432 45.6069 75.8192ZM46.2903 75.5648C48.4811 72.1341 50.4541 70.1428 52.8418 69.2391C55.223 68.3377 58.074 68.4962 62.0809 69.5047C59.6819 72.7878 57.6385 74.802 55.2651 75.7534C52.8978 76.7023 50.1502 76.6135 46.2903 75.5648Z" fill="white"/>
<path id="Vector 11" d="M45.8659 56.0978C53.9965 53.8087 57.5313 55.5304 62.5331 62.4741C54.0918 64.6701 50.4132 63.3451 45.8659 56.0978Z" fill="white"/>
<path id="Vector 11 (Stroke)" fill-rule="evenodd" clip-rule="evenodd" d="M45.6069 56.0014C45.6381 55.9254 45.7044 55.8674 45.7867 55.8442C49.875 54.6932 52.8673 54.5325 55.4805 55.58C58.0844 56.6238 60.2568 58.8464 62.7624 62.3248C62.8133 62.3954 62.8251 62.4849 62.7942 62.5652C62.7633 62.6454 62.6935 62.7065 62.6068 62.729C58.3726 63.8306 55.2676 64.0686 52.6367 63.0727C50.0052 62.0766 47.9088 59.8694 45.6272 56.233C45.5832 56.1629 45.5757 56.0774 45.6069 56.0014ZM46.2903 56.2558C48.4811 59.6864 50.4541 61.6777 52.8418 62.5815C55.223 63.4828 58.074 63.3244 62.0809 62.3159C59.6819 59.0327 57.6385 57.0186 55.2651 56.0672C52.8978 55.1183 50.1502 55.207 46.2903 56.2558Z" fill="white"/>
</g>
</g>
<defs>
<filter id="filter0_d_31_133" x="0" y="0" width="140" height="140" filterUnits="userSpaceOnUse" color-interpolation-filters="sRGB">
<feFlood flood-opacity="0" result="BackgroundImageFix"/>
<feColorMatrix in="SourceAlpha" type="matrix" values="0 0 0 0 0 0 0 0 0 0 0 0 0 0 0 0 0 0 127 0" result="hardAlpha"/>
<feOffset dy="4"/>
<feGaussianBlur stdDeviation="5"/>
<feComposite in2="hardAlpha" operator="out"/>
<feColorMatrix type="matrix" values="0 0 0 0 0 0 0 0 0 0 0 0 0 0 0 0 0 0 0.15 0"/>
<feBlend mode="normal" in2="BackgroundImageFix" result="effect1_dropShadow_31_133"/>
<feBlend mode="normal" in="SourceGraphic" in2="effect1_dropShadow_31_133" result="shape"/>
</filter>
</defs>
</svg>
