<svg width="163" height="27" viewBox="0 0 163 27" fill="none" xmlns="http://www.w3.org/2000/svg">
<g id="LIFETUNE">
<path id="Vector" d="M147.824 25.811C147.442 25.811 147.143 25.7035 146.928 25.4887C146.714 25.2738 146.606 24.9635 146.606 24.5576V1.81854C146.606 1.4127 146.714 1.10235 146.928 0.887492C147.143 0.672634 147.442 0.565205 147.824 0.565205H161.36C161.694 0.565205 161.945 0.648761 162.112 0.815873C162.279 0.982984 162.362 1.20978 162.362 1.49625C162.362 1.83048 162.279 2.08114 162.112 2.24825C161.945 2.39149 161.694 2.46311 161.36 2.46311H148.755V12.0601H160.643C160.978 12.0601 161.228 12.1436 161.395 12.3107C161.563 12.454 161.646 12.6808 161.646 12.9911C161.646 13.3015 161.563 13.5402 161.395 13.7073C161.228 13.8744 160.978 13.958 160.643 13.958H148.755V23.9131H161.36C161.694 23.9131 161.945 23.9966 162.112 24.1637C162.279 24.307 162.362 24.5338 162.362 24.8441C162.362 25.1545 162.279 25.3932 162.112 25.5603C161.945 25.7274 161.694 25.811 161.36 25.811H147.824Z" fill="white" fill-opacity="0.9"/>
<path id="Vector_2" d="M120.561 26.0258C120.227 26.0258 119.964 25.9303 119.773 25.7393C119.606 25.5484 119.522 25.2738 119.522 24.9157V1.49626C119.522 1.11429 119.606 0.82781 119.773 0.636827C119.94 0.445842 120.167 0.350349 120.453 0.350349C120.764 0.350349 120.99 0.398096 121.134 0.493588C121.277 0.589081 121.432 0.768128 121.599 1.03073L138.072 23.1969H137.248V1.42464C137.248 1.06654 137.332 0.803938 137.499 0.636827C137.69 0.445842 137.952 0.350349 138.286 0.350349C138.597 0.350349 138.836 0.445842 139.003 0.636827C139.194 0.803938 139.289 1.06654 139.289 1.42464V24.9157C139.289 25.2738 139.206 25.5484 139.038 25.7393C138.895 25.9303 138.68 26.0258 138.394 26.0258C138.131 26.0258 137.916 25.9661 137.749 25.8468C137.582 25.7513 137.403 25.5842 137.212 25.3454L120.776 3.17931H121.563V24.9157C121.563 25.2738 121.468 25.5484 121.277 25.7393C121.11 25.9303 120.871 26.0258 120.561 26.0258Z" fill="white" fill-opacity="0.9"/>
<path id="Vector_3" d="M102.562 26.0974C100.962 26.0974 99.5417 25.8826 98.3003 25.4529C97.0589 25.0232 96.0205 24.3786 95.1849 23.5191C94.3732 22.6597 93.7525 21.5974 93.3228 20.3321C92.917 19.0668 92.7141 17.6106 92.7141 15.9633V1.46045C92.7141 1.07848 92.8095 0.803938 93.0005 0.636827C93.1915 0.445842 93.4541 0.350349 93.7883 0.350349C94.1464 0.350349 94.421 0.445842 94.612 0.636827C94.8029 0.803938 94.8984 1.07848 94.8984 1.46045V15.7843C94.8984 18.5774 95.543 20.6663 96.8322 22.051C98.1452 23.4117 100.055 24.0921 102.562 24.0921C105.092 24.0921 107.002 23.4117 108.291 22.051C109.58 20.6663 110.225 18.5774 110.225 15.7843V1.46045C110.225 1.07848 110.32 0.803938 110.511 0.636827C110.702 0.445842 110.977 0.350349 111.335 0.350349C111.669 0.350349 111.932 0.445842 112.123 0.636827C112.314 0.803938 112.409 1.07848 112.409 1.46045V15.9633C112.409 18.1597 112.039 20.0217 111.299 21.5496C110.559 23.0536 109.449 24.1876 107.969 24.9515C106.513 25.7155 104.71 26.0974 102.562 26.0974Z" fill="white" fill-opacity="0.9"/>
<path id="Vector_4" d="M78.256 26.0258C77.8979 26.0258 77.6234 25.9303 77.4324 25.7393C77.2414 25.5245 77.1459 25.238 77.1459 24.8799V2.53473H68.5874C68.2532 2.53473 67.9906 2.43924 67.7996 2.24825C67.6086 2.05727 67.5131 1.81854 67.5131 1.53206C67.5131 1.22171 67.6086 0.982984 67.7996 0.815873C67.9906 0.648761 68.2532 0.565205 68.5874 0.565205H87.9604C88.2946 0.565205 88.5453 0.648761 88.7124 0.815873C88.9034 0.982984 88.9989 1.22171 88.9989 1.53206C88.9989 1.84241 88.9034 2.09308 88.7124 2.28407C88.5453 2.45118 88.2946 2.53473 87.9604 2.53473H79.3661V24.8799C79.3661 25.238 79.2706 25.5245 79.0796 25.7393C78.9125 25.9303 78.638 26.0258 78.256 26.0258Z" fill="white" fill-opacity="0.9"/>
<path id="Vector_5" d="M51.3434 25.811C50.9614 25.811 50.663 25.7035 50.4481 25.4887C50.2333 25.2738 50.1259 24.9635 50.1259 24.5576V1.81854C50.1259 1.4127 50.2333 1.10235 50.4481 0.887492C50.663 0.672634 50.9614 0.565205 51.3434 0.565205H64.8794C65.2136 0.565205 65.4643 0.648761 65.6314 0.815873C65.7985 0.982984 65.8821 1.20978 65.8821 1.49625C65.8821 1.83048 65.7985 2.08114 65.6314 2.24825C65.4643 2.39149 65.2136 2.46311 64.8794 2.46311H52.2744V12.0601H64.1632C64.4974 12.0601 64.7481 12.1436 64.9152 12.3107C65.0823 12.454 65.1659 12.6808 65.1659 12.9911C65.1659 13.3015 65.0823 13.5402 64.9152 13.7073C64.7481 13.8744 64.4974 13.958 64.1632 13.958H52.2744V23.9131H64.8794C65.2136 23.9131 65.4643 23.9966 65.6314 24.1637C65.7985 24.307 65.8821 24.5338 65.8821 24.8441C65.8821 25.1545 65.7985 25.3932 65.6314 25.5603C65.4643 25.7274 65.2136 25.811 64.8794 25.811H51.3434Z" fill="white" fill-opacity="0.9"/>
<path id="Vector_6" d="M31.2187 26.0258C30.8367 26.0258 30.5383 25.9184 30.3234 25.7035C30.1086 25.4887 30.0012 25.1903 30.0012 24.8083V1.81854C30.0012 1.4127 30.1086 1.10235 30.3234 0.887492C30.5383 0.672634 30.8367 0.565205 31.2187 0.565205H44.4324C44.7428 0.565205 44.9815 0.648761 45.1486 0.815873C45.3396 0.982984 45.4351 1.20978 45.4351 1.49625C45.4351 1.83048 45.3396 2.08114 45.1486 2.24825C44.9815 2.39149 44.7428 2.46311 44.4324 2.46311H32.1855V12.0959H43.7162C44.0266 12.0959 44.2653 12.1794 44.4324 12.3466C44.6234 12.4898 44.7189 12.7166 44.7189 13.0269C44.7189 13.3373 44.6234 13.576 44.4324 13.7431C44.2653 13.9102 44.0266 13.9938 43.7162 13.9938H32.1855V24.8083C32.1855 25.62 31.8633 26.0258 31.2187 26.0258Z" fill="white" fill-opacity="0.9"/>
<path id="Vector_7" d="M21.5817 26.0258C21.2475 26.0258 20.9849 25.9303 20.7939 25.7393C20.6029 25.5245 20.5074 25.238 20.5074 24.8799V1.49626C20.5074 1.11429 20.6029 0.82781 20.7939 0.636827C20.9849 0.445842 21.2475 0.350349 21.5817 0.350349C21.9398 0.350349 22.2144 0.445842 22.4054 0.636827C22.5963 0.82781 22.6918 1.11429 22.6918 1.49626V24.8799C22.6918 25.238 22.5963 25.5245 22.4054 25.7393C22.2382 25.9303 21.9637 26.0258 21.5817 26.0258Z" fill="white" fill-opacity="0.9"/>
<path id="Vector_8" d="M1.7376 25.811C1.40338 25.811 1.12884 25.7155 0.913979 25.5245C0.722995 25.3096 0.627502 25.0232 0.627502 24.6651V1.53206C0.627502 1.1501 0.722995 0.86362 0.913979 0.672636C1.10496 0.481651 1.36757 0.386158 1.70179 0.386158C2.05989 0.386158 2.33443 0.481651 2.52541 0.672636C2.71639 0.86362 2.81189 1.1501 2.81189 1.53206V23.8414H15.1304C15.4885 23.8414 15.7511 23.925 15.9182 24.0921C16.1092 24.2592 16.2047 24.4979 16.2047 24.8083C16.2047 25.1425 16.1092 25.3932 15.9182 25.5603C15.7511 25.7274 15.4885 25.811 15.1304 25.811H1.7376Z" fill="white" fill-opacity="0.9"/>
</g>
</svg>
