<svg width="77" height="76" viewBox="0 0 77 76" fill="none" xmlns="http://www.w3.org/2000/svg">
<g id="Group 1">
<path id="Vector 4" d="M53.2219 1.60013C56.6555 13.796 54.073 19.0982 43.6575 26.6009C40.3635 13.939 42.351 8.42102 53.2219 1.60013Z" fill="white"/>
<path id="Vector 4 (Stroke)" fill-rule="evenodd" clip-rule="evenodd" d="M53.3664 1.21158C53.4804 1.25834 53.5674 1.35788 53.6022 1.48127C55.3287 7.61372 55.5698 12.1021 53.9985 16.022C52.4329 19.9279 49.099 23.1864 43.8813 26.9449C43.7755 27.0211 43.6411 27.0389 43.5208 26.9926C43.4004 26.9462 43.3088 26.8415 43.275 26.7114C41.6227 20.3601 41.2657 15.7027 42.7595 11.7563C44.2536 7.80903 47.5645 4.66449 53.019 1.24206C53.1242 1.17607 53.2524 1.16482 53.3664 1.21158ZM52.9849 2.23663C47.8389 5.52287 44.852 8.48241 43.4963 12.064C42.1443 15.6358 42.382 19.9122 43.8947 25.9225C48.8194 22.3242 51.8407 19.259 53.2678 15.6989C54.6911 12.148 54.558 8.02646 52.9849 2.23663Z" fill="white"/>
<path id="Vector 5" d="M23.7844 1.60013C20.3508 13.796 22.9333 19.0982 33.3488 26.6009C36.6428 13.939 34.6553 8.42102 23.7844 1.60013Z" fill="white"/>
<path id="Vector 5 (Stroke)" fill-rule="evenodd" clip-rule="evenodd" d="M23.6399 1.21158C23.5259 1.25834 23.4389 1.35788 23.4041 1.48127C21.6776 7.61372 21.4365 12.1021 23.0078 16.022C24.5734 19.9279 27.9073 23.1864 33.125 26.9449C33.2308 27.0211 33.3651 27.0389 33.4855 26.9926C33.6059 26.9462 33.6974 26.8415 33.7313 26.7114C35.3836 20.3601 35.7406 15.7027 34.2468 11.7563C32.7527 7.80903 29.4418 4.66449 23.9872 1.24206C23.8821 1.17607 23.7539 1.16482 23.6399 1.21158ZM24.0214 2.23663C29.1674 5.52287 32.1543 8.48241 33.51 12.064C34.862 15.6358 34.6243 19.9122 33.1116 25.9225C28.1869 22.3242 25.1656 19.259 23.7385 15.6989C22.3152 12.148 22.4483 8.02646 24.0214 2.23663Z" fill="white"/>
<path id="Vector 6" d="M53.2219 74.3999C56.6555 62.204 54.073 56.9018 43.6575 49.3991C40.3635 62.061 42.351 67.579 53.2219 74.3999Z" fill="white"/>
<path id="Vector 6 (Stroke)" fill-rule="evenodd" clip-rule="evenodd" d="M53.3664 74.7884C53.4804 74.7417 53.5674 74.6421 53.6022 74.5187C55.3287 68.3863 55.5698 63.8979 53.9985 59.978C52.4329 56.0721 49.099 52.8136 43.8813 49.0551C43.7755 48.9789 43.6411 48.9611 43.5208 49.0074C43.4004 49.0538 43.3088 49.1585 43.275 49.2886C41.6227 55.6399 41.2657 60.2973 42.7595 64.2437C44.2536 68.191 47.5645 71.3355 53.019 74.7579C53.1242 74.8239 53.2524 74.8352 53.3664 74.7884ZM52.9849 73.7634C47.8389 70.4771 44.852 67.5176 43.4963 63.936C42.1443 60.3642 42.382 56.0878 43.8947 50.0775C48.8194 53.6758 51.8407 56.741 53.2678 60.3011C54.6911 63.852 54.558 67.9735 52.9849 73.7634Z" fill="white"/>
<path id="Vector 7" d="M23.7844 74.3999C20.3508 62.204 22.9333 56.9018 33.3488 49.3991C36.6428 62.061 34.6553 67.579 23.7844 74.3999Z" fill="white"/>
<path id="Vector 7 (Stroke)" fill-rule="evenodd" clip-rule="evenodd" d="M23.6399 74.7884C23.5259 74.7417 23.4389 74.6421 23.4041 74.5187C21.6776 68.3863 21.4365 63.8979 23.0078 59.978C24.5734 56.0721 27.9073 52.8136 33.125 49.0551C33.2308 48.9789 33.3651 48.9611 33.4855 49.0074C33.6059 49.0538 33.6974 49.1585 33.7313 49.2886C35.3836 55.6399 35.7406 60.2973 34.2468 64.2437C32.7527 68.191 29.4418 71.3355 23.9872 74.7579C23.8821 74.8239 23.7539 74.8352 23.6399 74.7884ZM24.0214 73.7634C29.1674 70.4771 32.1543 67.5176 33.51 63.936C34.862 60.3642 34.6243 56.0878 33.1116 50.0775C28.1869 53.6758 25.1656 56.741 23.7385 60.3011C22.3152 63.852 22.4483 67.9735 24.0214 73.7634Z" fill="white"/>
<path id="Vector 8" d="M74.903 52.7187C62.7071 56.1524 57.4049 53.5699 49.9022 43.1544C62.5641 39.8604 68.0821 41.8478 74.903 52.7187Z" fill="white"/>
<path id="Vector 8 (Stroke)" fill-rule="evenodd" clip-rule="evenodd" d="M75.2915 52.8633C75.2447 52.9773 75.1452 53.0643 75.0218 53.099C68.8894 54.8255 64.401 55.0666 60.4811 53.4954C56.5752 51.9297 53.3167 48.5958 49.5582 43.3782C49.4819 43.2723 49.4642 43.138 49.5105 43.0176C49.5569 42.8972 49.6616 42.8057 49.7916 42.7718C56.143 41.1195 60.8004 40.7625 64.7468 42.2563C68.6941 43.7504 71.8386 47.0613 75.261 52.5159C75.327 52.6211 75.3383 52.7493 75.2915 52.8633ZM74.2665 52.4817C70.9802 47.3357 68.0207 44.3488 64.4391 42.9931C60.8673 41.6411 56.5909 41.8788 50.5805 43.3915C54.1789 48.3163 57.2441 51.3375 60.8042 52.7646C64.3551 54.188 68.4766 54.0548 74.2665 52.4817Z" fill="white"/>
<path id="Vector 9" d="M74.903 23.2813C62.7071 19.8476 57.4049 22.4301 49.9022 32.8456C62.5641 36.1396 68.0821 34.1522 74.903 23.2813Z" fill="white"/>
<path id="Vector 9 (Stroke)" fill-rule="evenodd" clip-rule="evenodd" d="M75.2915 23.1367C75.2447 23.0227 75.1452 22.9357 75.0218 22.901C68.8894 21.1745 64.401 20.9334 60.4811 22.5046C56.5752 24.0703 53.3167 27.4042 49.5582 32.6218C49.4819 32.7277 49.4642 32.862 49.5105 32.9824C49.5569 33.1028 49.6616 33.1943 49.7916 33.2282C56.143 34.8805 60.8004 35.2375 64.7468 33.7437C68.6941 32.2496 71.8386 28.9387 75.261 23.4841C75.327 23.3789 75.3383 23.2507 75.2915 23.1367ZM74.2665 23.5183C70.9802 28.6643 68.0207 31.6512 64.4391 33.0069C60.8673 34.3589 56.5909 34.1212 50.5805 32.6085C54.1789 27.6837 57.2441 24.6625 60.8042 23.2354C64.3551 21.812 68.4766 21.9452 74.2665 23.5183Z" fill="white"/>
<path id="Vector 10" d="M2.10325 52.7187C14.2991 56.1524 19.6013 53.5699 27.104 43.1544C14.4421 39.8604 8.92414 41.8478 2.10325 52.7187Z" fill="white"/>
<path id="Vector 10 (Stroke)" fill-rule="evenodd" clip-rule="evenodd" d="M1.71472 52.8633C1.76148 52.9773 1.86101 53.0643 1.98441 53.099C8.11686 54.8255 12.6053 55.0666 16.5252 53.4954C20.431 51.9297 23.6896 48.5958 27.448 43.3782C27.5243 43.2723 27.542 43.138 27.4957 43.0176C27.4493 42.8972 27.3446 42.8057 27.2146 42.7719C20.8632 41.1195 16.2058 40.7625 12.2595 42.2563C8.31217 43.7504 5.16762 47.0613 1.7452 52.5159C1.6792 52.6211 1.66795 52.7493 1.71472 52.8633ZM2.73977 52.4817C6.026 47.3357 8.98555 44.3488 12.5671 42.9931C16.1389 41.6411 20.4154 41.8788 26.4257 43.3915C22.8273 48.3163 19.7621 51.3375 16.202 52.7646C12.6511 54.188 8.5296 54.0548 2.73977 52.4817Z" fill="white"/>
<path id="Vector 11" d="M2.10325 23.2813C14.2991 19.8476 19.6013 22.4301 27.104 32.8457C14.4421 36.1396 8.92414 34.1522 2.10325 23.2813Z" fill="white"/>
<path id="Vector 11 (Stroke)" fill-rule="evenodd" clip-rule="evenodd" d="M1.71472 23.1367C1.76148 23.0227 1.86101 22.9357 1.98441 22.901C8.11686 21.1745 12.6053 20.9334 16.5252 22.5046C20.431 24.0703 23.6896 27.4042 27.448 32.6218C27.5243 32.7277 27.542 32.862 27.4957 32.9824C27.4493 33.1028 27.3446 33.1943 27.2146 33.2282C20.8632 34.8805 16.2058 35.2375 12.2595 33.7437C8.31217 32.2496 5.16762 28.9387 1.7452 23.4841C1.6792 23.3789 1.66795 23.2507 1.71472 23.1367ZM2.73977 23.5183C6.026 28.6643 8.98555 31.6512 12.5671 33.0069C16.1389 34.3589 20.4154 34.1212 26.4257 32.6085C22.8273 27.6837 19.7621 24.6625 16.202 23.2354C12.6511 21.812 8.5296 21.9452 2.73977 23.5183Z" fill="white"/>
</g>
</svg>
