<svg width="54" height="54" viewBox="0 0 54 54" fill="none" xmlns="http://www.w3.org/2000/svg">
<g id="Frame">
<path id="Vector" d="M47 27C47 27.4421 46.8244 27.866 46.5118 28.1785C46.1992 28.4911 45.7753 28.6667 45.3333 28.6667H27C26.5579 28.6667 26.134 28.4911 25.8214 28.1785C25.5089 27.866 25.3333 27.4421 25.3333 27C25.3333 26.558 25.5089 26.1341 25.8214 25.8215C26.134 25.509 26.5579 25.3334 27 25.3334H45.3333C45.7753 25.3334 46.1992 25.509 46.5118 25.8215C46.8244 26.1341 47 26.558 47 27ZM27 15.3334H45.3333C45.7753 15.3334 46.1992 15.1578 46.5118 14.8452C46.8244 14.5326 47 14.1087 47 13.6667C47 13.2247 46.8244 12.8007 46.5118 12.4882C46.1992 12.1756 45.7753 12 45.3333 12H27C26.5579 12 26.134 12.1756 25.8214 12.4882C25.5089 12.8007 25.3333 13.2247 25.3333 13.6667C25.3333 14.1087 25.5089 14.5326 25.8214 14.8452C26.134 15.1578 26.5579 15.3334 27 15.3334ZM45.3333 38.6667H27C26.5579 38.6667 26.134 38.8423 25.8214 39.1549C25.5089 39.4674 25.3333 39.8913 25.3333 40.3334C25.3333 40.7754 25.5089 41.1993 25.8214 41.5119C26.134 41.8244 26.5579 42 27 42H45.3333C45.7753 42 46.1992 41.8244 46.5118 41.5119C46.8244 41.1993 47 40.7754 47 40.3334C47 39.8913 46.8244 39.4674 46.5118 39.1549C46.1992 38.8423 45.7753 38.6667 45.3333 38.6667ZM17.4874 9.1542L11.9999 14.6438L9.84578 12.4875C9.53305 12.1748 9.10889 11.9991 8.66662 11.9991C8.22434 11.9991 7.80018 12.1748 7.48745 12.4875C7.17472 12.8003 6.99902 13.2244 6.99902 13.6667C6.99902 14.109 7.17472 14.5331 7.48745 14.8459L10.8208 18.1792C10.9756 18.3342 11.1594 18.4571 11.3617 18.541C11.564 18.6248 11.7809 18.668 11.9999 18.668C12.219 18.668 12.4359 18.6248 12.6382 18.541C12.8405 18.4571 13.0243 18.3342 13.1791 18.1792L19.8458 11.5125C20.1585 11.1998 20.3342 10.7756 20.3342 10.3334C20.3342 9.89109 20.1585 9.46693 19.8458 9.1542C19.533 8.84146 19.1089 8.66577 18.6666 8.66577C18.2243 8.66577 17.8002 8.84146 17.4874 9.1542ZM17.4874 22.4875L11.9999 27.9771L9.84578 25.8209C9.53305 25.5081 9.10889 25.3324 8.66662 25.3324C8.22434 25.3324 7.80018 25.5081 7.48745 25.8209C7.17472 26.1336 6.99902 26.5578 6.99902 27C6.99902 27.219 7.04216 27.4359 7.12596 27.6382C7.20977 27.8405 7.3326 28.0243 7.48745 28.1792L10.8208 31.5125C10.9756 31.6675 11.1594 31.7904 11.3617 31.8743C11.564 31.9582 11.7809 32.0013 11.9999 32.0013C12.219 32.0013 12.4359 31.9582 12.6382 31.8743C12.8405 31.7904 13.0243 31.6675 13.1791 31.5125L19.8458 24.8459C20.1585 24.5331 20.3342 24.109 20.3342 23.6667C20.3342 23.2244 20.1585 22.8003 19.8458 22.4875C19.533 22.1748 19.1089 21.9991 18.6666 21.9991C18.2243 21.9991 17.8002 22.1748 17.4874 22.4875ZM17.4874 35.8209L11.9999 41.3104L9.84578 39.1542C9.69093 38.9993 9.5071 38.8765 9.30478 38.7927C9.10246 38.7089 8.88561 38.6658 8.66662 38.6658C8.44763 38.6658 8.23078 38.7089 8.02846 38.7927C7.82613 38.8765 7.6423 38.9993 7.48745 39.1542C7.3326 39.309 7.20977 39.4929 7.12596 39.6952C7.04216 39.8975 6.99902 40.1144 6.99902 40.3334C6.99902 40.5524 7.04216 40.7692 7.12596 40.9715C7.20977 41.1738 7.3326 41.3577 7.48745 41.5125L10.8208 44.8459C10.9756 45.0008 11.1594 45.1238 11.3617 45.2076C11.564 45.2915 11.7809 45.3347 11.9999 45.3347C12.219 45.3347 12.4359 45.2915 12.6382 45.2076C12.8405 45.1238 13.0243 45.0008 13.1791 44.8459L19.8458 38.1792C20.1585 37.8665 20.3342 37.4423 20.3342 37C20.3342 36.5578 20.1585 36.1336 19.8458 35.8209C19.533 35.5081 19.1089 35.3324 18.6666 35.3324C18.2243 35.3324 17.8002 35.5081 17.4874 35.8209Z" fill="white"/>
</g>
</svg>
